<?xml version="1.0" encoding="utf-8"?>
<!-- Generator: Adobe Illustrator 19.2.1, SVG Export Plug-In . SVG Version: 6.00 Build 0)  -->
<svg version="1.1" xmlns="http://www.w3.org/2000/svg" xmlns:xlink="http://www.w3.org/1999/xlink" x="0px" y="0px" width="500px"
	 height="500px" viewBox="0 0 500 500" style="enable-background:new 0 0 500 500;" xml:space="preserve">
<style type="text/css">
	.st0{display:none;}
	.st1{display:inline;fill:#231815;}
</style>
<g id="Layer_1">
	<g>
		<g>
			<path d="M450,269.2v-20l-47.2,47.2L450,269.2z M427.8,399.5l-34.4-59.6c5.2,35,8.3,78.7-1,110.1H430c11,0,20-9,20-20v-10.8
				C441,415.4,433.1,408.6,427.8,399.5z M430,50H70c-11,0-20,9-20,20v360c0,11,9,20,20,20h278.7c19.8-38,25.6-80.7,26.5-113.4
				l-36.3,62.9c-13,22.6-41.9,30.3-64.5,17.3c-22.6-13-30.3-41.9-17.3-64.5l3.6-6.3l-6.3-3.6c-22.6-13-30.3-41.9-17.3-64.5
				c13-22.6,41.9-30.3,64.5-17.3l62.3,35.9L311.4,244c-18.4-18.4-18.4-48.4,0-66.8c18.4-18.4,48.4-18.4,66.8,0l5.1,5.1l5.1-5.1
				c16.8-16.8,43-18.3,61.5-4.6V70C450,59,441,50,430,50z"/>
		</g>
	</g>
</g>
<g id="Layer_2" class="st0">
	<path class="st1" d="M1365.8,2L1276,91.8c-23,23-60.4,23-83.4,0s-23-60.4,0-83.4L1199,2l-6.4-6.4c-23-23-23-60.4,0-83.4
		s60.4-23,83.4,0L1365.8,2z"/>
	<path class="st1" d="M1365.8,2l89.8-89.8c23-23,60.4-23,83.4,0s23,60.4,0,83.4l-6.4,6.4l6.4,6.4c23,23,23,60.4,0,83.4
		s-60.4,23-83.4,0L1365.8,2z"/>
	<path class="st1" d="M1365.8,2l-89.8-89.8c-23-23-23-60.4,0-83.4c23-23,60.4-23,83.4,0l6.4,6.4l6.4-6.4c23-23,60.4-23,83.4,0
		s23,60.4,0,83.4L1365.8,2z"/>
	<path class="st1" d="M1365.8,0l89.8,89.8c23,23,23,60.4,0,83.4s-60.4,23-83.4,0l-6.4-6.4l-6.4,6.4c-23,23-60.4,23-83.4,0
		s-23-60.4,0-83.4L1365.8,0z"/>
	<path class="st1" d="M1406,378h-127c-32.6,0-59-26.4-59-59s26.4-59,59-59h9.1V251c0-32.6,26.4-59,59-59s59,26.4,59,59V378z"/>
	<path class="st1" d="M1365.8,532.9l-22.5,38.9c-5.8,10-18.5,13.4-28.5,7.6s-13.4-18.5-7.6-28.5l1.6-2.8l-2.8-1.6
		c-10-5.8-13.4-18.5-7.6-28.5c5.8-10,18.5-13.4,28.5-7.6L1365.8,532.9z"/>
	<path class="st1" d="M1365.8,532.9l38.9-22.5c10-5.8,22.7-2.3,28.5,7.6c5.8,10,2.3,22.7-7.6,28.5l-2.8,1.6l1.6,2.8
		c5.8,10,2.3,22.7-7.6,28.5s-22.7,2.3-28.5-7.6L1365.8,532.9z"/>
	<path class="st1" d="M1365.8,535.7L1334,504c-8.1-8.1-8.1-21.3,0-29.5c8.1-8.1,21.3-8.1,29.5,0l2.3,2.3l2.3-2.3
		c8.1-8.1,21.3-8.1,29.5,0c8.1,8.1,8.1,21.3,0,29.5L1365.8,535.7z"/>
	<path class="st1" d="M1345.1,601.7l20.7-73.2l20.7,73.2c0,0-9.3-3.2-20.7-3.2C1354.4,598.5,1345.1,601.7,1345.1,601.7z"/>
	<path class="st1" d="M1206,538.7l-22.5,38.9c-5.8,10-18.5,13.4-28.5,7.6c-10-5.8-13.4-18.5-7.6-28.5l1.6-2.8l-2.8-1.6
		c-10-5.8-13.4-18.5-7.6-28.5c5.8-10,18.5-13.4,28.5-7.6L1206,538.7z"/>
	<path class="st1" d="M1200.4,538.7l38.9-22.5c10-5.8,22.7-2.3,28.5,7.6c5.8,10,2.3,22.7-7.6,28.5l-2.8,1.6l1.6,2.8
		c5.8,10,2.3,22.7-7.6,28.5c-10,5.8-22.7,2.3-28.5-7.6L1200.4,538.7z"/>
	<path class="st1" d="M1203.2,540.7l-31.8-31.8c-8.1-8.1-8.1-21.3,0-29.5c8.1-8.1,21.3-8.1,29.5,0l2.3,2.3l2.3-2.3
		c8.1-8.1,21.3-8.1,29.5,0c8.1,8.1,8.1,21.3,0,29.5L1203.2,540.7z"/>
	<path class="st1" d="M1197.1,615.1c25-16,5.4-89.3,5.4-89.3l-4.1,0.7c0,0,7.5,47.2-14.8,80.7c-2.9,4.4,0.9,10.1,6,9.2L1197.1,615.1
		z"/>
</g>
</svg>
